# xmcd
#
# Track frame offsets: 
#        150
#        23060
#        36050
#        53910
#        75427
#        99952
#        123182
#        149430
#        174410
#        197480
#
# Disc length: 2937 seconds
#
# Revision: 4
# Processed by: cddbd v1.5.2PL0 Copyright (c) Steve Scherf et al.
# Submitted via: ExactAudioCopy v1.0b3
#
DISCID=730b770a
DTITLE=Various Artist - Rumba
DYEAR=1988
DGENRE=Ethnic (Vietnamese)
TTITLE0=Elvis Phuong - Je ne t'aime plus
TTITLE1=Julie - Bai ngoi ca tinh yeu (Chanson d'orphee)
TTITLE2=Duy Quang - Niem Thuong Nho
TTITLE3=Minh Xuan - Yeu nhau di (Besame mucho)
TTITLE4=Duy Quang, Billy Shane - Tuyet roi (Tombe la neige)
TTITLE5=Kieu Nga - Trung Vuong khung cua mua thu
TTITLE6=Duy Quang, Billy Shane - Em dep nhu mo (Elle est si Jollie)
TTITLE7=Nhu Mai, Thuy Vi - Chi la giac mo qua
TTITLE8=Duy Quang - Canh buom xua (La paloma)
TTITLE9=Kieu Nga - Mua tinh yeu (Le temp de l'amour)
EXTD=
EXTT0=
EXTT1=
EXTT2=
EXTT3=
EXTT4=
EXTT5=
EXTT6=
EXTT7=
EXTT8=
EXTT9=
PLAYORDER=
